<?xml version="1.0" standalone="no"?>
<!DOCTYPE svg PUBLIC "-//W3C//DTD SVG 20010904//EN"
 "http://www.w3.org/TR/2001/REC-SVG-20010904/DTD/svg10.dtd">
<svg version="1.0" xmlns="http://www.w3.org/2000/svg"
 width="1753.000000pt" height="1588.000000pt" viewBox="0 0 1753.000000 1588.000000"
 preserveAspectRatio="xMidYMid meet">

<g transform="translate(0.000000,1588.000000) scale(0.100000,-0.100000)"
fill="currentColor" stroke="none">
<path d="M7875 15860 c-263 -25 -700 -102 -1020 -178 -529 -127 -1418 -471
-1846 -715 -194 -109 -675 -413 -819 -515 -212 -151 -506 -393 -735 -603 -115
-107 -221 -207 -235 -223 -14 -16 -109 -119 -212 -230 -333 -359 -760 -927
-988 -1316 -40 -69 -95 -161 -120 -205 -113 -193 -331 -651 -440 -925 -97
-243 -249 -710 -321 -985 -101 -389 -201 -1031 -229 -1480 -22 -346 -10 -910
26 -1220 8 -71 21 -186 29 -255 26 -236 102 -659 155 -865 48 -185 131 -479
139 -487 8 -10 231 52 231 64 0 5 -32 127 -70 271 -204 766 -280 1371 -267
2132 6 316 34 766 57 885 5 30 22 127 36 215 104 645 296 1300 551 1880 52
116 271 556 328 655 79 140 293 487 378 615 246 369 698 892 1062 1229 388
359 603 531 995 796 360 242 853 506 1270 677 47 19 90 39 95 43 6 4 44 19 85
33 41 14 107 38 145 53 232 88 749 233 1030 288 72 14 164 33 205 41 75 15
467 65 675 85 292 29 1033 29 1270 1 44 -6 112 -13 150 -16 181 -15 536 -78
915 -161 713 -157 1592 -526 2252 -946 37 -24 115 -74 175 -112 59 -38 164
-113 233 -166 69 -53 168 -128 220 -166 174 -129 463 -386 700 -624 252 -252
290 -295 588 -660 84 -103 335 -444 368 -500 12 -19 65 -107 119 -195 211
-343 314 -533 440 -810 43 -93 88 -190 101 -215 51 -101 208 -534 288 -796
142 -469 222 -859 287 -1404 l41 -345 0 -455 c0 -521 -12 -714 -68 -1090 -59
-399 -155 -857 -235 -1123 -21 -72 -36 -134 -32 -138 10 -9 202 -69 220 -69 7
0 13 6 13 13 0 7 18 73 41 147 97 322 210 853 259 1215 15 119 50 680 56 918
7 304 -19 753 -67 1127 -84 665 -269 1358 -534 2000 -121 294 -396 843 -533
1065 -202 328 -555 810 -808 1105 -148 172 -615 649 -694 709 -19 14 -111 91
-205 171 -206 176 -227 192 -385 306 -306 221 -564 383 -875 550 -328 176
-540 276 -822 388 -542 215 -1012 349 -1538 440 -544 93 -467 88 -1240 91
-619 3 -711 2 -890 -15z"/>
<path d="M8195 15469 c-315 -17 -896 -109 -1325 -210 -211 -50 -570 -167 -825
-269 -44 -18 -123 -49 -175 -70 -234 -93 -699 -324 -900 -448 -288 -178 -707
-477 -960 -686 -284 -235 -696 -645 -925 -921 -427 -514 -685 -905 -970 -1475
-223 -444 -411 -947 -563 -1505 -55 -202 -140 -656 -176 -945 -44 -355 -68
-1023 -47 -1315 37 -510 112 -1009 212 -1410 45 -181 126 -445 137 -445 4 0
30 6 57 14 45 11 50 16 48 39 -1 14 -29 117 -62 229 -147 497 -225 1010 -263
1713 -15 264 -15 258 0 615 16 379 53 675 138 1110 32 165 48 232 139 575 51
193 155 510 219 668 127 314 358 781 519 1050 43 70 77 131 77 136 0 10 194
295 309 454 396 546 906 1071 1441 1481 330 254 338 259 750 509 141 86 579
315 705 369 325 140 497 203 830 307 927 288 2000 381 2980 256 827 -105 1577
-336 2350 -723 245 -123 308 -160 590 -340 338 -216 639 -440 871 -647 163
-146 619 -608 724 -735 58 -69 132 -156 165 -195 33 -38 106 -131 161 -205
586 -789 998 -1648 1244 -2595 72 -275 119 -540 176 -990 36 -290 36 -291 41
-770 4 -434 3 -501 -16 -705 -23 -241 -51 -450 -81 -596 -10 -50 -33 -167 -50
-260 -38 -208 -84 -394 -144 -583 -25 -80 -46 -150 -46 -156 0 -10 81 -35 115
-35 39 0 218 781 285 1249 43 301 61 561 66 976 6 450 -12 731 -72 1115 -153
987 -408 1746 -865 2575 -39 72 -83 153 -97 180 -38 74 -331 512 -435 650
-126 167 -321 406 -405 496 -39 42 -102 112 -139 157 -37 45 -133 141 -213
214 -80 73 -153 142 -163 155 -20 25 -375 330 -482 414 -142 112 -532 381
-688 476 -268 163 -550 310 -839 439 -396 176 -708 285 -1128 393 -430 111
-765 167 -1253 211 -240 21 -738 26 -1042 9z"/>
<path d="M6955 14798 c-47 -17 -106 -60 -139 -101 -25 -31 -31 -49 -34 -104
-4 -55 10 -161 24 -184 4 -7 164 39 177 50 4 4 1 24 -8 44 -17 42 -20 100 -5
127 12 23 62 35 89 20 52 -27 79 -110 236 -720 38 -146 70 -267 71 -269 7 -9
182 62 179 72 -3 7 -50 188 -105 402 -55 215 -113 419 -127 455 -31 75 -105
155 -177 189 -53 26 -139 35 -181 19z"/>
<path d="M6888 14346 c-49 -17 -88 -35 -88 -41 0 -5 27 -107 60 -224 33 -118
60 -227 60 -242 0 -32 -75 -121 -124 -146 -47 -25 -144 -34 -177 -18 -53 28
-46 55 21 76 89 28 171 173 155 272 -35 207 -160 288 -324 206 -84 -42 -114
-83 -119 -164 -5 -70 12 -114 53 -141 22 -14 28 -14 79 2 51 16 54 19 41 34
-8 9 -20 30 -26 47 -19 57 35 119 86 99 26 -10 55 -69 55 -112 0 -71 -50 -115
-188 -162 -73 -26 -77 -29 -80 -60 -4 -42 35 -127 78 -170 131 -132 375 -124
496 16 l32 37 11 -40 c6 -22 11 -44 11 -50 1 -34 17 -35 105 -5 48 16 90 31
92 34 3 2 -207 744 -220 777 -1 3 -41 -8 -89 -25z"/>
<path d="M10772 14103 c-13 -41 -20 -79 -15 -83 4 -4 51 -24 103 -44 136 -53
140 -57 140 -114 0 -54 -28 -92 -68 -92 -12 0 -81 25 -154 55 -72 31 -131 54
-132 53 -7 -13 -46 -148 -46 -159 0 -8 21 -22 46 -33 l46 -19 -3 -136 c-1 -75
2 -144 6 -155 9 -22 126 -76 163 -76 14 0 44 -9 67 -20 22 -11 54 -22 71 -26
30 -6 31 -4 37 33 4 21 9 49 13 63 5 24 -1 28 -88 70 l-93 45 -3 63 -3 63 74
-7 c62 -5 81 -3 119 14 108 47 162 189 126 329 -17 71 -70 115 -220 183 -178
82 -159 82 -186 -7z"/>
<path d="M5973 14017 c-39 -23 -74 -45 -77 -48 -7 -7 276 -640 304 -679 18
-26 24 -28 45 -18 14 6 25 15 25 20 0 4 7 8 15 8 15 0 95 37 95 44 0 14 -318
710 -325 712 -6 1 -42 -17 -82 -39z"/>
<path d="M8633 13975 c-34 -34 -35 -38 -31 -96 5 -66 23 -93 73 -107 80 -23
139 34 132 127 -3 46 -9 59 -36 83 -46 41 -92 39 -138 -7z"/>
<path d="M8173 13990 c-45 -18 -72 -89 -53 -144 30 -93 144 -125 190 -53 41
66 29 144 -28 182 -38 26 -71 30 -109 15z"/>
<path d="M7698 13929 c-45 -23 -58 -45 -58 -99 0 -101 78 -157 160 -115 38 20
50 43 50 100 0 103 -71 156 -152 114z"/>
<path d="M4978 13887 c-109 -89 -149 -171 -129 -262 14 -63 81 -169 121 -194
l30 -18 -31 -25 -32 -24 39 -59 c21 -33 49 -71 62 -85 12 -14 22 -29 22 -34 0
-5 15 -32 34 -60 47 -71 136 -214 197 -318 28 -49 56 -88 61 -88 20 0 138 100
138 116 0 7 -15 35 -32 61 -18 26 -40 60 -48 76 -8 15 -37 64 -65 110 -61 100
-62 101 -104 174 -19 32 -59 98 -88 147 -49 79 -53 90 -40 104 14 13 12 17
-16 36 -41 28 -87 96 -94 140 -5 31 -1 39 33 71 22 20 51 43 67 51 l27 15 -41
54 c-23 30 -45 55 -50 55 -4 0 -32 -19 -61 -43z"/>
<path d="M11395 13893 c-60 -152 -207 -575 -207 -596 1 -16 -6 -46 -13 -68 -8
-22 -12 -45 -9 -52 7 -18 142 -80 159 -73 8 3 15 14 15 24 0 10 4 22 9 28 10
11 41 107 41 126 0 7 40 123 89 258 48 135 91 255 95 267 6 19 -2 26 -80 62
-48 23 -88 41 -89 41 -2 0 -6 -8 -10 -17z"/>
<path d="M5644 13834 c-17 -8 -47 -32 -67 -52 l-35 -37 29 -66 30 -66 34 34
c44 44 86 45 125 3 15 -16 31 -41 34 -56 15 -60 -39 -134 -98 -134 -14 0 -26
-3 -26 -7 -1 -5 14 -38 32 -75 29 -58 37 -67 61 -67 125 -3 219 157 187 319
-30 155 -190 262 -306 204z"/>
<path d="M11661 13693 l-33 -68 36 -30 c20 -16 36 -35 36 -42 0 -7 -23 -61
-51 -120 -53 -114 -66 -181 -52 -281 9 -73 112 -168 198 -184 16 -3 22 -16 30
-63 11 -60 18 -85 36 -117 23 -44 10 -50 -181 -87 -123 -23 -135 -27 -138 -42
-2 -9 30 -41 79 -79 l82 -63 84 41 c82 42 117 50 127 33 3 -5 6 -60 7 -122 l1
-114 42 -40 c51 -49 124 -100 132 -92 3 3 1 27 -4 54 -13 59 -39 211 -47 277
-8 58 5 72 47 50 15 -8 68 -17 118 -21 l91 -6 -3 94 -3 94 -80 6 c-117 9 -207
59 -234 131 -14 38 4 86 35 94 31 8 132 -4 139 -17 4 -5 50 -9 103 -9 l97 1
32 42 c35 47 59 132 48 175 -26 108 -126 218 -240 267 -36 15 -68 26 -70 23
-2 -2 -20 -38 -39 -80 -39 -87 -42 -83 56 -94 35 -4 65 -10 68 -13 3 -4 18
-14 33 -24 89 -57 33 -150 -70 -116 -21 7 -73 15 -117 18 l-80 6 -15 60 c-9
33 -19 62 -23 65 -4 3 -24 86 -46 185 -43 200 -28 176 -152 248 l-46 27 -33
-67z m225 -393 c6 0 14 -19 17 -42 3 -24 9 -61 13 -84 6 -39 5 -42 -32 -64
-47 -30 -99 -28 -125 3 -22 27 -25 97 -5 135 7 15 30 63 51 107 l39 80 15 -67
c9 -38 21 -68 27 -68z"/>
<path d="M5390 13673 c-41 -25 -77 -47 -79 -49 -7 -7 181 -407 216 -461 68
-103 142 -147 253 -147 73 -1 88 3 160 45 71 40 170 128 170 149 0 10 -12 34
-27 53 -16 20 -35 47 -44 59 l-17 23 -52 -57 c-52 -58 -135 -108 -176 -108
-40 0 -74 22 -105 67 -16 24 -29 48 -29 53 0 8 -187 410 -194 417 0 1 -35 -19
-76 -44z"/>
<path d="M8215 13270 c-33 -4 -91 -11 -130 -15 -38 -4 -113 -16 -165 -27 -52
-11 -113 -23 -135 -27 -76 -14 -313 -93 -410 -136 -16 -8 -52 -24 -80 -36 -27
-12 -44 -24 -36 -27 13 -4 87 15 106 29 6 3 21 10 35 14 14 3 54 17 90 30 152
54 345 105 475 127 33 5 103 17 155 26 120 20 515 23 640 4 141 -20 327 -55
385 -72 17 -5 82 -23 145 -40 63 -17 124 -35 135 -40 11 -4 49 -18 85 -30 36
-13 79 -29 95 -36 186 -78 329 -152 440 -227 193 -131 474 -368 475 -399 0
-10 -10 -20 -24 -24 -38 -9 -62 -43 -96 -132 -27 -68 -30 -85 -19 -98 16 -19
83 -54 103 -54 13 0 36 -28 36 -43 0 -13 -107 -37 -164 -37 -86 0 -108 -9 -67
-26 23 -10 31 -20 31 -38 0 -34 -37 -57 -106 -65 -30 -3 -55 -10 -56 -16 -3
-23 91 -56 193 -68 91 -11 104 -15 106 -32 4 -31 -43 -76 -90 -87 -28 -6 -86
-5 -175 3 -102 9 -138 9 -158 0 -26 -11 -26 -12 -9 -31 10 -11 34 -22 54 -25
98 -17 185 -40 269 -73 125 -49 122 -64 -12 -55 -150 9 -160 -1 -41 -41 55
-19 134 -50 175 -70 78 -38 134 -45 136 -16 1 8 2 21 3 28 2 21 92 112 139
139 70 41 142 32 178 -22 22 -34 10 -83 -22 -91 -32 -8 -28 -38 6 -42 65 -8
145 -35 241 -80 127 -61 161 -69 194 -48 14 9 25 25 25 35 0 21 -34 130 -49
157 -6 11 -37 73 -70 140 -32 66 -77 150 -100 187 -23 37 -41 70 -41 73 0 11
-112 177 -164 244 -27 36 -86 104 -130 151 -45 47 -112 121 -151 165 -204 232
-530 463 -865 612 -54 24 -140 58 -255 102 -49 19 -124 42 -260 80 -67 19
-115 29 -215 44 -58 9 -132 21 -165 27 -73 13 -607 20 -690 9z m2322 -1344
c27 -24 27 -26 13 -53 -23 -41 -63 -52 -98 -26 -40 29 -40 56 0 82 42 27 51
26 85 -3z"/>
<path d="M4696 13187 l-69 -63 77 -122 c42 -67 76 -126 76 -131 0 -8 -123
-121 -132 -121 -7 0 -98 147 -98 157 0 15 -33 42 -68 54 -24 8 -38 7 -64 -5
-35 -17 -157 -119 -171 -143 -6 -9 7 -35 38 -79 l47 -65 29 45 c16 26 31 46
34 46 26 0 64 -36 85 -79 l24 -51 -21 -28 c-56 -77 -18 -205 84 -275 46 -32
82 -34 139 -8 55 25 87 71 92 137 4 43 0 60 -24 103 l-29 52 35 30 c19 16 51
43 71 59 l35 29 65 -109 c35 -59 74 -114 86 -121 20 -11 28 -7 88 45 74 66 76
46 -15 189 -28 43 -50 82 -50 85 0 4 -10 18 -23 32 -13 14 -26 34 -31 45 -10
28 -227 355 -235 355 -3 0 -37 -29 -75 -63z"/>
<path d="M7228 12983 c7 -3 16 -2 19 1 4 3 -2 6 -13 5 -11 0 -14 -3 -6 -6z"/>
<path d="M13312 12780 c-23 -10 -58 -31 -77 -46 -19 -14 -148 -167 -286 -340
l-251 -314 68 -75 c54 -60 70 -73 80 -63 6 7 114 139 239 293 253 312 299 355
374 355 56 0 95 -22 143 -81 62 -77 108 -194 108 -276 0 -30 7 -38 70 -79 39
-25 75 -42 80 -39 17 10 11 138 -10 221 -48 189 -189 382 -325 445 -54 25
-156 25 -213 -1z"/>
<path d="M4016 12580 l-68 -80 61 -67 c34 -37 61 -70 61 -74 0 -3 -63 -80
-141 -170 -77 -90 -150 -181 -161 -203 -25 -49 -35 -174 -18 -235 13 -50 86
-133 140 -161 61 -30 102 -33 164 -9 66 24 151 101 181 164 28 57 27 165 -4
227 -20 43 -83 109 -126 134 -18 10 -16 15 29 68 39 46 52 54 61 44 7 -7 67
-77 134 -155 l123 -143 64 80 65 80 -232 272 c-128 150 -239 281 -249 291 -15
17 -20 14 -84 -63z m31 -599 c38 -32 73 -92 73 -127 0 -45 -45 -96 -84 -96
-42 0 -116 76 -116 118 0 98 68 154 127 105z"/>
<path d="M6675 12600 c-3 -5 -1 -10 4 -10 6 0 11 5 11 10 0 6 -2 10 -4 10 -3
0 -8 -4 -11 -10z"/>
<path d="M3564 12516 c-71 -22 -161 -77 -216 -130 -67 -66 -144 -180 -169
-251 -35 -100 -21 -234 35 -329 21 -36 472 -492 583 -590 l42 -37 48 61 c87
111 92 89 -49 226 -67 66 -193 187 -278 269 -174 168 -184 180 -205 252 -32
110 -17 161 77 249 74 69 123 95 188 102 l46 4 30 89 c24 71 28 89 16 94 -24
9 -105 4 -148 -9z"/>
<path d="M13184 12115 c-84 -42 -143 -167 -131 -281 11 -111 103 -245 196
-286 99 -45 221 24 261 145 6 21 15 37 19 35 11 -5 91 -94 91 -102 0 -4 -53
-71 -118 -149 -65 -78 -121 -148 -126 -155 -8 -13 110 -160 129 -161 6 0 119
127 252 281 l243 281 -43 49 c-23 27 -54 64 -69 81 l-26 32 -62 -68 c-35 -37
-66 -67 -71 -65 -4 2 -56 59 -114 128 -150 176 -194 220 -240 241 -57 27 -130
24 -191 -6z m186 -202 c16 -9 37 -32 47 -50 17 -33 17 -34 -7 -79 -44 -82
-119 -108 -165 -58 -48 52 -42 112 19 177 29 31 65 35 106 10z"/>
<path d="M14076 11494 c-31 -26 -56 -48 -56 -49 0 -1 16 -19 35 -39 48 -51 45
-75 -11 -125 -26 -23 -50 -41 -54 -41 -3 0 -19 14 -35 30 -82 86 -245 -32
-245 -177 0 -60 37 -142 76 -168 46 -31 104 -26 152 12 l41 33 46 -76 c25 -42
47 -79 48 -83 1 -5 -44 -50 -100 -101 -57 -50 -103 -96 -103 -101 0 -5 25 -48
55 -94 l55 -86 148 128 c81 70 206 179 279 242 82 71 129 119 125 126 -46 76
-107 165 -111 165 -3 0 -51 -41 -106 -90 -55 -50 -103 -90 -106 -90 -6 0 -109
155 -109 164 0 2 38 36 85 75 51 44 87 82 91 98 10 39 -20 119 -76 205 -28 43
-55 80 -59 83 -5 2 -34 -16 -65 -41z"/>
<path d="M11000 11253 c-37 -7 -50 -22 -50 -57 0 -36 -15 -56 -42 -56 -24 0
-76 26 -105 52 -15 14 -29 19 -47 14 -19 -5 -29 0 -45 20 -17 22 -23 24 -36
14 -8 -7 -15 -25 -15 -41 0 -39 -14 -44 -44 -14 -14 14 -31 25 -39 25 -7 0
-46 -34 -85 -75 -39 -41 -79 -75 -88 -75 -9 0 -32 14 -51 30 -18 17 -41 30
-51 30 -9 0 -53 -12 -97 -26 -137 -44 -410 -94 -513 -94 -29 0 -80 -9 -113
-20 -56 -19 -210 -107 -269 -154 -59 -47 -170 -170 -170 -187 0 -29 -36 -95
-78 -142 -83 -94 -104 -138 -103 -212 1 -45 -2 -53 -31 -76 -22 -19 -29 -31
-25 -44 6 -14 15 -16 51 -11 42 7 46 5 71 -29 15 -19 35 -35 44 -35 25 0 60
36 67 68 3 15 8 38 10 52 8 34 68 113 116 151 111 89 254 161 299 152 16 -3
35 -1 42 5 10 9 22 5 49 -14 39 -28 84 -33 152 -19 37 8 38 7 27 -13 -6 -12
-29 -31 -51 -42 -42 -21 -45 -41 -9 -61 21 -11 25 -44 8 -55 -6 -3 -45 -15
-87 -25 -98 -25 -201 -81 -202 -111 0 -4 26 -14 58 -22 162 -45 181 -53 182
-79 0 -4 -54 -65 -119 -135 -93 -100 -117 -131 -110 -144 17 -31 136 -98 174
-98 19 0 35 4 35 9 0 12 76 38 134 46 78 11 209 93 333 209 97 90 123 135 123
214 0 61 11 99 34 114 6 4 30 8 53 8 l41 0 -5 73 c-6 79 11 162 47 232 21 42
191 211 235 235 35 19 53 2 37 -35 -19 -42 -15 -75 9 -75 11 0 29 5 39 10 26
14 90 125 91 158 0 15 9 50 20 77 l19 50 -4 -81 c-6 -96 -22 -150 -82 -266
-24 -48 -44 -95 -44 -105 0 -11 13 -29 29 -41 44 -32 83 -93 188 -292 113
-214 139 -259 181 -325 25 -38 62 -90 83 -115 77 -95 177 -285 205 -389 16
-64 18 -111 4 -111 -5 0 -10 18 -10 41 0 54 -30 81 -80 74 -24 -4 -48 1 -75
15 -66 34 -71 30 -78 -57 -3 -43 -13 -95 -22 -116 -45 -107 -190 -182 -244
-128 -14 14 -18 29 -14 62 4 37 0 48 -21 71 -32 34 -76 43 -191 42 -174 -2
-420 -107 -386 -163 11 -17 83 -30 178 -30 89 -1 173 -18 193 -40 41 -44 94
-171 106 -251 8 -51 25 -76 59 -84 31 -8 38 -31 14 -52 -15 -13 -46 -20 -122
-25 -121 -10 -180 -21 -239 -48 -53 -24 -109 -41 -263 -81 -66 -18 -137 -36
-157 -42 -55 -15 -67 -7 -61 41 7 51 -8 71 -55 71 -26 0 -42 -8 -66 -34 -37
-38 -72 -60 -86 -51 -6 3 -10 19 -10 36 0 36 -7 36 -47 1 -37 -34 -59 -74 -68
-125 -13 -66 -38 -42 -36 33 1 60 20 119 76 235 50 103 56 113 150 255 159
236 295 473 295 511 0 10 5 21 10 24 12 8 13 52 1 59 -4 3 -35 -12 -67 -33
-228 -148 -515 -651 -618 -1081 -88 -371 -120 -480 -159 -556 -42 -81 -82 -62
-92 44 -9 93 -22 139 -42 146 -27 11 -42 -15 -53 -96 -6 -42 -22 -105 -36
-140 -14 -34 -28 -84 -31 -110 -5 -40 -1 -54 27 -102 38 -68 35 -94 -17 -142
-49 -45 -140 -69 -235 -61 -101 8 -155 29 -230 91 -97 81 -128 93 -128 54 0
-29 67 -131 151 -231 73 -88 139 -192 139 -219 0 -26 -27 -34 -49 -14 -10 9
-21 16 -26 16 -4 0 -25 16 -46 35 -52 47 -79 45 -123 -6 -60 -71 -62 -165 -5
-209 11 -9 17 -19 13 -23 -15 -15 -56 -6 -121 27 -59 29 -82 35 -168 40 -82 6
-107 12 -137 32 -21 13 -38 28 -38 32 0 15 -123 106 -188 140 -109 58 -125 26
-42 -79 34 -44 40 -58 40 -100 0 -56 25 -118 96 -234 27 -45 60 -105 73 -135
43 -100 56 -123 93 -164 33 -36 48 -66 33 -66 -7 0 -146 71 -215 111 -228 129
-381 208 -415 214 -22 4 -60 17 -85 29 -49 25 -190 151 -190 171 0 7 -7 19
-16 26 -18 15 -142 186 -170 236 -183 317 -327 503 -390 503 -27 0 -34 -6 -57
-52 -24 -49 -73 -246 -84 -344 -5 -39 -2 -43 39 -76 57 -47 420 -261 628 -370
58 -30 123 -66 145 -78 43 -25 82 -47 190 -105 60 -32 212 -117 347 -193 21
-12 68 -38 105 -58 138 -76 531 -298 636 -360 59 -35 109 -64 112 -64 3 0 33
-17 67 -38 35 -21 70 -41 78 -45 8 -4 33 -18 55 -31 255 -150 513 -286 581
-306 38 -11 46 -10 95 13 30 15 64 34 76 43 21 15 23 15 29 -1 4 -10 -1 -39
-11 -64 -9 -25 -24 -64 -32 -86 -8 -22 -34 -85 -58 -140 -23 -55 -57 -135 -75
-177 -18 -43 -38 -78 -45 -78 -7 0 -56 25 -110 55 -53 30 -100 55 -104 55 -3
0 -22 11 -41 23 -29 20 -238 140 -480 275 -25 14 -90 51 -145 82 -55 31 -179
101 -275 155 -96 54 -228 129 -293 167 -65 37 -120 68 -122 68 -2 0 -42 22
-90 50 -48 27 -88 50 -90 50 -1 0 -67 38 -146 83 -79 46 -164 95 -189 109 -25
14 -103 58 -174 98 -71 39 -139 77 -150 83 -12 6 -37 21 -56 33 -19 11 -82 47
-140 79 -58 32 -125 70 -150 86 -39 24 -93 54 -190 106 -14 7 -36 13 -48 13
-13 0 -35 8 -48 19 -20 16 -22 21 -9 31 12 10 7 21 -31 73 -24 34 -47 67 -52
72 -4 6 -18 25 -30 43 -13 17 -31 32 -40 32 -9 0 -44 -33 -78 -73 -69 -82 -90
-116 -77 -127 4 -4 67 -38 138 -74 138 -71 165 -90 150 -105 -6 -5 -59 -34
-120 -66 -102 -53 -257 -136 -297 -160 -48 -28 -393 -268 -563 -392 -202 -147
-402 -322 -377 -331 7 -2 21 3 30 12 28 27 210 146 317 206 121 69 198 110
470 253 186 97 304 168 400 240 181 136 289 223 292 238 10 36 34 25 218 -101
66 -45 222 -149 375 -250 54 -36 253 -168 441 -295 189 -126 351 -234 361
-240 30 -17 1300 -867 1355 -907 29 -21 64 -43 79 -48 22 -9 27 -7 31 10 6 23
23 27 23 6 0 -22 -119 -248 -189 -358 -33 -54 -61 -99 -61 -102 0 -6 -270
-414 -337 -509 -13 -18 -37 -53 -55 -79 -213 -306 -293 -386 -593 -589 -66
-45 -122 -83 -124 -85 -3 -3 2 -11 10 -19 13 -13 19 -13 50 4 54 29 231 155
335 237 118 95 169 154 468 544 119 155 116 151 251 340 68 96 133 186 143
200 118 161 210 356 311 658 44 133 88 253 97 267 24 37 94 85 124 85 110 0
131 -252 45 -530 -39 -125 -46 -151 -52 -190 l-4 -35 42 43 c32 34 44 41 50
30 5 -7 9 -18 9 -24 0 -6 11 -20 25 -32 33 -29 32 -45 -9 -85 -47 -48 -63 -75
-76 -130 -12 -56 2 -127 25 -127 8 0 35 5 60 12 39 11 47 10 55 -2 23 -38 -31
-138 -161 -300 -42 -52 -107 -140 -144 -195 -37 -55 -120 -169 -183 -253 -136
-184 -222 -310 -222 -329 0 -35 49 -1 250 171 180 155 209 178 220 171 14 -9
13 -20 -10 -73 -20 -44 -35 -75 -132 -267 -23 -44 -49 -91 -60 -104 -17 -22
-18 -22 -18 -4 0 11 -6 26 -14 32 -11 9 -19 5 -40 -19 -14 -18 -26 -40 -26
-50 0 -20 23 -32 45 -24 28 11 16 -16 -71 -161 -29 -47 -48 -85 -43 -85 25 0
333 66 464 100 171 44 314 89 466 149 103 40 106 42 156 108 29 38 60 77 70
88 93 105 233 346 233 402 0 39 13 55 41 51 50 -7 121 -143 147 -282 7 -32 14
-61 17 -64 2 -3 23 7 45 22 l41 27 -7 88 c-7 96 0 156 17 130 5 -7 9 -26 9
-40 0 -14 9 -34 20 -44 19 -17 20 -17 32 11 7 16 12 61 12 101 -1 56 1 70 12
66 21 -8 34 -72 32 -151 -1 -39 1 -74 4 -78 7 -7 60 22 116 63 28 21 32 30 33
71 3 117 27 137 86 73 l38 -41 38 25 c20 14 37 29 37 34 0 7 -40 73 -77 126
-7 11 -30 45 -51 75 -20 30 -89 122 -152 204 -63 82 -124 161 -135 176 -11 16
-59 75 -107 132 -48 57 -145 172 -215 255 -173 206 -467 536 -602 678 -114
118 -301 327 -345 384 -22 30 -49 64 -58 76 -41 52 -47 73 -32 118 97 308 187
435 474 668 129 105 438 337 542 408 43 29 103 80 133 113 81 90 174 287 219
463 13 55 25 114 58 305 19 114 45 203 76 265 30 61 50 140 76 300 74 458 71
870 -9 1231 -14 61 -25 121 -25 132 0 11 16 43 35 72 19 29 35 58 35 66 0 36
52 115 93 141 70 46 71 53 16 77 -27 12 -45 29 -54 50 -12 28 -11 35 7 66 85
146 98 177 98 241 0 74 -17 115 -105 260 -91 149 -153 221 -231 263 -37 21
-74 45 -83 55 -25 29 -109 68 -182 85 -36 9 -67 15 -70 15 -2 -1 -15 -4 -29
-6z m188 -95 c6 -13 16 -53 22 -91 13 -79 4 -102 -40 -112 -17 -4 -40 -20 -52
-36 -26 -35 -40 -27 -62 38 -40 118 2 223 90 223 22 0 34 -6 42 -22z m-1494
-337 c10 -15 -311 -245 -410 -295 -64 -32 -84 -33 -84 -5 0 54 178 227 280
272 71 32 201 49 214 28z m44 -122 c2 -11 -16 -22 -67 -39 -39 -14 -74 -21
-78 -17 -14 15 15 42 63 59 57 19 78 19 82 -3z m1775 -346 c-7 -20 -17 -29
-36 -31 l-27 -3 27 40 c30 46 52 42 36 -6z m-409 -1639 c6 -15 -17 -64 -30
-64 -3 0 -14 5 -25 10 -18 10 -18 13 -4 40 17 33 49 40 59 14z m-613 -354 c30
-6 60 -18 66 -27 11 -14 9 -19 -15 -35 -20 -13 -47 -18 -102 -18 -85 0 -111
-10 -91 -34 21 -25 91 -45 205 -56 143 -15 162 -19 182 -41 36 -40 11 -51
-162 -69 -92 -10 -165 -43 -246 -111 -71 -60 -64 -81 38 -114 74 -25 100 -19
69 15 -27 30 -2 34 88 16 42 -9 107 -16 144 -17 90 -1 157 -19 161 -42 6 -29
-27 -57 -65 -57 -40 0 -44 -22 -8 -46 14 -9 25 -20 25 -25 0 -4 -20 -17 -45
-28 -46 -20 -126 -95 -228 -213 -74 -86 -103 -97 -220 -79 -115 18 -307 69
-387 103 -120 52 -136 73 -160 215 -20 116 -32 156 -54 179 -20 20 -21 19 -21
-28 0 -75 -55 -154 -215 -315 -84 -85 -94 -84 -87 11 5 75 48 198 90 261 30
44 79 95 93 95 20 0 73 68 107 138 80 166 266 272 455 257 87 -6 99 0 66 37
-16 16 -15 18 7 27 32 13 243 14 310 1z m-3994 -1546 c-3 -3 -12 -4 -19 -1 -8
3 -5 6 6 6 11 1 17 -2 13 -5z m2477 -346 c34 -40 46 -68 28 -68 -15 0 -82 78
-82 95 0 25 17 17 54 -27z m607 -249 c18 -35 8 -173 -15 -198 -25 -28 -53 -23
-80 12 -18 25 -19 31 -7 75 15 59 57 132 76 132 8 0 19 -10 26 -21z m-278
-183 c30 -23 21 -46 -18 -46 -42 0 -67 32 -38 49 24 14 34 13 56 -3z m13 -134
c41 -37 76 -89 72 -108 -2 -13 -10 -10 -40 13 -53 43 -91 91 -84 108 8 21 17
19 52 -13z m1038 -755 c8 -12 27 -65 41 -117 34 -127 35 -264 2 -329 -41 -83
-61 -61 -83 87 -17 124 -18 335 -2 362 16 26 24 25 42 -3z m246 -321 c0 -51
-14 -163 -34 -271 -11 -56 -55 -206 -75 -249 -32 -74 -69 -118 -94 -114 -23 3
-24 11 -11 76 5 28 4 32 -15 32 -28 0 -27 4 14 54 68 84 91 158 134 434 6 40
18 89 27 110 l15 37 20 -24 c14 -17 19 -39 19 -85z m392 -333 c75 -76 158
-163 185 -192 26 -30 55 -62 64 -71 33 -34 147 -177 183 -229 38 -57 42 -77
15 -94 -40 -25 -101 19 -145 106 -37 72 -122 183 -299 391 -152 178 -184 226
-153 226 8 0 75 -62 150 -137z m-699 -627 c7 -18 -69 -116 -89 -116 -24 0 -15
38 18 77 49 57 62 64 71 39z m-213 -370 c0 -27 -31 -86 -45 -86 -18 0 -20 33
-4 63 19 35 49 49 49 23z"/>
<path d="M2903 11013 c-44 -15 -73 -30 -73 -39 0 -7 18 -91 40 -185 22 -95 40
-172 40 -173 0 -1 -33 -1 -73 -1 -80 0 -155 -28 -227 -85 -48 -38 -110 -156
-110 -210 0 -105 64 -205 163 -255 60 -30 107 -31 162 -6 75 35 125 107 125
179 0 36 -4 42 -59 81 -33 22 -62 41 -65 41 -3 0 -6 -22 -6 -49 0 -42 -4 -53
-30 -74 -36 -31 -60 -26 -100 19 -79 91 -30 150 145 175 104 14 122 9 145 -47
24 -56 77 -122 111 -140 15 -7 48 -18 73 -24 40 -9 52 -7 85 10 52 26 101 120
101 192 0 111 -89 196 -222 213 -31 4 -59 12 -61 19 -2 6 -19 95 -38 199 -18
103 -38 187 -44 186 -5 0 -43 -12 -82 -26z"/>
<path d="M14805 10783 c-41 -21 -82 -61 -107 -103 -12 -19 -23 -37 -25 -40 -2
-2 -14 9 -27 25 l-23 28 -264 -214 c-145 -118 -272 -221 -282 -230 -19 -15
-18 -18 34 -106 l53 -91 125 102 c441 358 444 361 455 344 8 -14 14 -10 36 26
35 55 107 94 147 80 24 -8 68 -69 86 -119 4 -10 97 64 97 77 0 23 -48 105 -86
148 -73 81 -154 108 -219 73z"/>
<path d="M6362 10708 c-41 -41 36 -227 94 -228 6 0 28 16 50 35 57 51 119 79
189 83 33 1 71 6 85 9 l25 6 -30 8 c-16 5 -57 15 -91 22 -33 8 -70 20 -82 26
-17 9 -36 9 -82 -1 l-60 -12 -33 32 c-36 35 -47 38 -65 20z"/>
<path d="M7107 10470 c-8 -31 25 -83 68 -107 59 -34 125 -29 125 8 0 38 -24
69 -74 94 -62 31 -112 33 -119 5z"/>
<path d="M6699 10417 c-148 -61 -242 -191 -263 -365 -4 -29 -9 -59 -12 -67 -5
-11 -2 -13 10 -9 9 3 33 36 53 73 83 151 179 257 276 306 67 33 120 33 153 0
27 -27 27 -53 -3 -145 -14 -42 -101 -221 -154 -320 -35 -63 -89 -178 -89 -187
0 -17 110 -204 140 -239 33 -38 198 -170 275 -220 90 -59 155 -125 155 -158 0
-65 47 -87 89 -42 32 34 22 67 -34 121 -50 49 -53 61 -60 255 -4 139 -21 205
-51 205 -14 0 -21 -13 -32 -65 -16 -78 -9 -152 19 -197 11 -18 19 -43 17 -55
-2 -19 -9 -23 -33 -21 -38 3 -70 42 -90 107 -20 68 -19 129 6 217 42 152 49
185 50 233 1 62 -21 86 -91 97 -61 10 -100 32 -100 58 0 10 13 33 29 50 39 41
64 120 65 201 1 57 -3 70 -27 102 -63 82 -189 110 -298 65z"/>
<path d="M7145 10286 c-23 -17 -9 -45 55 -106 66 -64 66 -67 34 -357 -4 -34
-4 -69 0 -79 6 -15 9 -14 24 12 47 80 71 195 72 340 0 125 -6 144 -44 144 -11
0 -27 7 -36 15 -8 8 -32 21 -52 29 -29 12 -38 13 -53 2z"/>
<path d="M14652 10163 c-106 -60 -211 -126 -234 -148 -106 -102 -132 -306 -58
-462 16 -36 51 -99 76 -139 l46 -74 27 19 c14 11 44 38 65 60 l39 40 -42 46
c-24 26 -56 76 -73 111 -25 54 -30 74 -26 120 8 90 33 113 265 232 l201 104
-41 99 c-22 54 -43 99 -46 99 -4 0 -93 -48 -199 -107z"/>
<path d="M9188 10069 c-22 -12 -23 -45 -2 -95 32 -78 71 -95 114 -49 32 35 30
92 -5 123 -14 12 -34 22 -45 22 -10 0 -24 2 -32 5 -7 2 -21 0 -30 -6z"/>
<path d="M2365 9998 c-30 -90 -55 -192 -48 -198 12 -11 626 -280 639 -280 11
0 71 187 62 195 -7 7 -603 282 -629 290 -11 4 -21 1 -24 -7z"/>
<path d="M14893 9962 l-52 -27 24 -28 c43 -49 45 -119 4 -170 -22 -29 -64 -36
-100 -17 -24 13 -59 81 -59 115 l0 26 -61 -33 -61 -33 4 -65 c6 -120 90 -202
208 -204 161 -2 276 148 242 314 -13 60 -60 144 -82 147 -8 1 -38 -10 -67 -25z"/>
<path d="M2225 9598 c-10 -26 -55 -182 -55 -189 0 -4 56 -31 125 -59 69 -29
125 -57 125 -63 0 -17 -43 -172 -50 -180 -3 -4 -52 12 -108 35 -116 48 -141
46 -178 -9 -25 -37 -88 -226 -82 -245 3 -7 33 -24 69 -38 l64 -27 10 60 c14
83 29 91 102 52 l57 -30 1 -50 c3 -97 59 -151 170 -162 85 -9 137 34 164 134
24 89 -14 172 -90 194 -21 7 -39 14 -39 16 0 7 52 188 55 191 1 1 56 -20 121
-48 65 -27 124 -50 129 -50 15 0 70 189 59 199 -11 10 -626 281 -637 281 -4 0
-10 -6 -12 -12z"/>
<path d="M6290 9550 c0 -149 138 -400 343 -624 244 -267 494 -460 674 -523 73
-24 84 -26 122 -15 50 15 68 50 85 162 12 83 7 202 -9 207 -6 2 -20 -16 -32
-41 -23 -46 -90 -107 -138 -126 -51 -20 -154 -15 -214 9 -179 73 -393 283
-600 589 -47 69 -161 287 -161 306 0 7 -9 31 -20 54 -27 55 -50 56 -50 2z"/>
<path d="M14925 9464 c-115 -64 -254 -140 -307 -170 l-97 -54 41 -98 c22 -53
42 -98 43 -100 3 -4 604 325 617 337 7 7 -71 201 -81 201 -3 0 -100 -53 -216
-116z"/>
<path d="M14782 9019 c-38 -11 -72 -59 -72 -102 0 -46 26 -96 57 -108 35 -13
124 4 146 29 46 51 39 125 -17 167 -35 26 -60 29 -114 14z"/>
<path d="M1941 8596 c-5 -34 -13 -82 -16 -107 l-7 -45 59 -16 c32 -9 78 -21
102 -28 l43 -11 -7 -57 c-10 -93 -11 -94 -55 -87 -77 13 -153 -29 -180 -99
-12 -34 -60 -328 -54 -337 4 -8 123 -33 129 -28 2 3 13 56 23 118 21 125 31
141 87 141 31 0 56 -19 68 -51 3 -10 -5 -82 -18 -160 -13 -79 -21 -147 -17
-151 7 -7 122 -38 141 -38 5 0 13 22 17 49 7 58 5 57 143 67 66 5 99 12 110
23 11 11 26 74 45 194 15 98 26 181 23 183 -9 9 -117 35 -126 30 -4 -3 -13
-45 -21 -93 -17 -120 -22 -130 -67 -142 -59 -17 -60 -16 -65 53 -4 43 -14 80
-32 113 l-27 50 15 89 c9 49 16 92 16 96 0 3 75 -13 167 -37 92 -24 168 -43
169 -42 6 8 30 213 25 218 -3 4 -158 43 -343 86 l-337 79 -10 -60z"/>
<path d="M14921 8531 c-68 -36 -82 -116 -30 -176 27 -31 37 -35 78 -35 38 1
53 7 86 35 36 31 40 39 40 81 0 41 -4 50 -39 80 -45 39 -82 43 -135 15z"/>
<path d="M15085 8057 c-45 -45 -52 -77 -28 -124 40 -79 135 -92 193 -27 44 50
42 104 -4 150 -29 29 -41 34 -81 34 -40 0 -52 -5 -80 -33z"/>
<path d="M3110 6066 c-47 -18 -101 -36 -120 -40 -19 -4 -447 -130 -950 -281
-503 -150 -968 -288 -1032 -306 -65 -18 -122 -35 -128 -39 -23 -14 142 -497
299 -873 101 -244 334 -700 505 -992 108 -184 459 -700 476 -700 5 0 33 18 61
40 165 129 249 198 249 205 0 7 -63 93 -180 245 -81 106 -395 589 -443 681
l-16 32 297 177 c163 98 387 233 497 300 110 68 378 227 595 355 217 128 396
234 398 235 1 1 -33 80 -76 176 -109 241 -191 447 -248 624 -49 154 -68 195
-88 195 -6 -1 -49 -16 -96 -34z"/>
<path d="M14056 6092 c-3 -5 -28 -78 -57 -163 -80 -239 -256 -668 -310 -756
l-20 -32 23 -14 c13 -8 226 -136 473 -284 799 -479 1320 -794 1334 -808 15
-15 11 -22 -143 -270 -135 -218 -228 -357 -290 -435 -79 -99 -206 -276 -206
-288 0 -5 9 -16 19 -23 10 -8 66 -50 122 -95 57 -44 109 -83 115 -87 7 -4 27
17 49 50 21 31 66 94 101 140 144 188 348 515 484 773 48 91 110 208 138 261
129 239 303 664 433 1050 49 146 89 270 89 275 0 5 -44 24 -97 41 -212 69
-2220 673 -2235 673 -9 0 -19 -4 -22 -8z"/>
<path d="M13195 5208 c-46 -71 -175 -236 -459 -588 -478 -593 -780 -870 -1295
-1188 -428 -265 -852 -451 -1346 -591 -1336 -380 -2743 -210 -4010 484 -160
87 -538 331 -585 377 -14 13 -96 81 -182 151 -252 204 -477 418 -590 561 -21
27 -50 57 -64 68 -39 32 -265 338 -446 605 -57 84 -107 153 -113 153 -5 0 -84
-44 -175 -99 -91 -54 -264 -157 -385 -228 -324 -191 -688 -411 -1055 -637
-179 -110 -356 -216 -395 -237 -38 -20 -74 -44 -79 -52 -11 -17 45 -114 197
-342 370 -554 771 -1020 1256 -1461 91 -82 197 -175 235 -207 319 -262 449
-359 756 -564 980 -653 2145 -1076 3370 -1222 554 -66 1090 -60 1740 19 1384
168 2627 661 3705 1467 290 216 707 581 920 804 158 166 432 474 531 598 191
240 500 690 580 846 l29 57 -24 16 c-62 44 -465 292 -716 440 -300 177 -446
265 -730 439 -99 61 -228 138 -287 171 -59 33 -133 78 -165 100 -72 48 -167
102 -180 102 -6 0 -23 -19 -38 -42z m1085 -977 l155 -148 -35 -46 c-19 -26
-39 -47 -44 -47 -5 0 -77 67 -159 149 l-150 149 33 46 c18 25 36 46 39 46 3 0
76 -67 161 -149z m-10901 -77 c77 -83 95 -177 44 -228 -23 -23 -34 -27 -71
-24 -39 3 -42 1 -38 -17 3 -11 10 -44 16 -73 l12 -52 91 80 92 80 18 -22 c10
-13 26 -35 37 -50 l20 -26 -143 -129 c-78 -70 -152 -136 -163 -145 -19 -17
-21 -16 -56 31 l-37 49 35 33 c19 18 34 36 34 39 0 3 -50 34 -111 69 l-110 63
7 42 c13 79 14 80 64 48 25 -15 62 -38 83 -51 l38 -23 -7 38 c-10 60 -18 69
-91 110 -38 20 -69 38 -71 39 -5 4 29 115 35 115 3 0 24 -16 46 -36 42 -38 57
-35 57 13 0 31 54 73 94 73 27 0 42 -9 75 -46z m10750 -18 c10 -12 5 -24 -28
-65 -50 -64 -54 -79 -39 -127 23 -68 88 -75 131 -13 15 20 16 19 47 -26 35
-50 33 -56 -19 -100 -59 -49 -107 -57 -164 -29 -71 36 -100 79 -111 161 -8 64
3 94 69 185 l49 67 26 -19 c15 -11 32 -26 39 -34z m-10414 -130 c67 -69 78
-165 29 -258 -10 -20 -90 -114 -178 -208 l-159 -171 -43 42 -44 43 23 25 c12
14 83 91 158 171 183 195 213 245 171 283 -17 15 -20 15 -43 0 -13 -10 -29
-23 -35 -31 -8 -11 -17 -5 -47 31 -20 25 -35 52 -32 59 10 25 78 58 119 58 34
0 46 -6 81 -44z m10342 -426 l-32 -48 -85 78 c-47 43 -120 114 -163 157 l-78
79 38 48 37 47 157 -157 157 -157 -31 -47z m-309 95 c38 -40 42 -49 42 -93 0
-27 -7 -66 -16 -87 -8 -20 -14 -38 -12 -40 2 -1 14 -8 28 -15 22 -12 26 -10
50 20 59 78 51 75 87 38 l32 -33 -65 -83 c-35 -45 -69 -82 -75 -82 -5 0 -32
11 -59 25 -60 30 -76 31 -92 5 -18 -28 -29 -25 -67 14 l-33 34 61 80 c51 66
61 84 55 106 -5 21 -12 26 -38 25 -26 0 -37 -9 -74 -61 l-44 -60 -33 32 -34
33 63 81 c99 127 146 140 224 61z m-237 -326 l-3 -116 31 -11 c40 -14 98 -75
106 -111 14 -66 -44 -141 -111 -141 -37 0 -99 64 -114 118 -14 52 -38 64 -124
60 l-61 -3 -3 -33 c-4 -42 14 -64 47 -60 19 2 29 11 36 35 l10 31 34 -40 c29
-34 33 -44 25 -66 -22 -61 -117 -90 -176 -54 -74 46 -101 155 -55 223 12 19
42 44 67 57 37 19 57 23 118 20 l72 -3 0 108 0 108 53 -3 52 -3 -4 -116z
m-9406 -132 c5 -28 2 -47 -14 -79 l-21 -42 24 -26 24 -25 -32 -38 -32 -39 -32
36 c-26 29 -38 36 -69 36 -21 0 -49 7 -62 16 -19 14 -25 14 -32 3 -16 -26 -9
-45 31 -84 22 -21 40 -44 40 -50 0 -6 -15 -26 -33 -43 l-33 -32 -67 69 c-37
38 -67 77 -67 87 0 10 12 49 26 87 24 62 25 69 10 91 -14 23 -13 26 17 61 l32
37 63 -66 c65 -69 80 -76 106 -50 27 27 18 56 -34 109 l-50 50 27 39 27 38 72
-74 c54 -55 74 -83 79 -111z m188 -155 c18 -19 15 -24 -113 -193 -73 -96 -135
-175 -139 -177 -4 -1 -24 15 -45 37 l-38 39 132 176 133 175 26 -18 c14 -10
34 -28 44 -39z m8872 -209 c75 -90 140 -163 143 -163 3 0 15 9 26 19 35 32 87
36 120 10 32 -25 56 -75 56 -117 0 -73 -102 -201 -193 -242 -44 -21 -161 -28
-171 -11 -4 5 3 29 13 54 19 44 19 44 71 46 59 1 102 23 149 77 34 38 39 65
16 84 -23 19 -49 7 -70 -33 -18 -34 -23 -37 -50 -31 -42 9 -49 18 -34 45 11
21 10 22 -2 12 -13 -10 -37 15 -152 157 -75 93 -137 172 -137 176 0 12 62 85
70 82 4 -2 70 -76 145 -165z m-8752 108 c65 -62 68 -95 14 -168 l-37 -51 41
-37 42 -37 49 76 50 77 47 -43 c26 -24 45 -48 42 -54 -13 -26 -246 -354 -252
-354 -3 0 -27 18 -53 41 l-46 41 50 63 c27 34 50 67 50 72 0 5 -16 24 -35 43
l-34 33 -31 -33 c-26 -28 -35 -32 -63 -26 -42 8 -87 57 -87 96 0 39 22 90 48
114 17 14 31 17 62 13 35 -4 42 -2 60 23 26 37 25 45 -10 70 l-30 21 26 35
c15 19 31 34 36 34 5 0 33 -22 61 -49z m8545 -151 c35 -22 95 -108 106 -154 4
-15 2 -52 -4 -81 -9 -44 -20 -61 -60 -99 -47 -44 -52 -46 -107 -46 -36 0 -67
6 -80 15 -21 15 -21 17 -6 63 9 26 17 48 19 50 1 2 16 -4 33 -12 42 -22 68
-20 85 7 21 32 10 87 -26 131 -40 48 -78 49 -122 2 l-32 -33 -22 39 c-21 35
-22 40 -8 60 9 12 34 35 57 50 52 35 118 38 167 8z m-8152 -183 c36 -27 69
-61 79 -82 16 -34 16 -40 0 -87 -16 -49 -16 -51 5 -73 20 -21 21 -25 6 -52
l-15 -30 37 18 c36 17 64 22 109 20 12 -1 51 -21 87 -46 37 -25 68 -45 71 -45
2 0 12 15 21 33 9 17 18 34 20 36 1 2 28 -11 58 -29 l56 -31 -101 -202 c-56
-111 -103 -204 -104 -205 -7 -8 -105 54 -105 66 0 7 25 62 55 122 l55 110 -52
35 c-66 44 -98 45 -132 4 -14 -17 -26 -38 -26 -48 0 -18 25 -58 52 -81 16 -14
15 -17 -17 -54 -34 -38 -35 -38 -59 -22 -35 22 -75 94 -82 147 -4 31 0 59 14
96 l20 52 -32 24 c-19 15 -50 26 -81 29 -27 3 -56 7 -63 9 -8 2 -18 -7 -23
-19 -9 -25 -3 -32 70 -90 l24 -18 -24 -42 c-13 -23 -27 -41 -31 -39 -4 1 -41
31 -83 65 -85 72 -89 85 -55 174 19 52 19 52 0 73 -19 20 -19 21 6 63 l25 42
70 -56 c64 -53 72 -56 94 -44 25 13 38 46 27 66 -4 7 -31 31 -60 54 -31 25
-49 47 -45 53 26 46 46 67 56 59 7 -5 40 -29 73 -55z m7394 -366 c35 -24 60
-78 60 -129 0 -50 -31 -116 -61 -133 l-22 -11 26 -25 25 -26 56 32 56 31 15
-36 c8 -20 13 -40 10 -45 -3 -4 -39 -31 -81 -58 -58 -40 -79 -49 -93 -41 -14
7 -69 69 -97 109 -2 2 -17 -7 -34 -19 -17 -12 -33 -21 -34 -19 -2 2 -13 25
-24 51 l-20 47 69 41 c77 46 109 83 93 108 -24 37 -39 36 -102 -2 -34 -21 -66
-34 -72 -31 -11 7 -43 65 -38 69 82 58 146 100 162 107 27 11 75 2 106 -20z
m-246 -335 c53 -115 95 -210 94 -211 -2 -1 -25 -13 -51 -28 l-48 -26 -8 22
c-5 12 -48 102 -95 201 -47 98 -86 182 -86 186 0 7 92 71 96 67 1 -1 45 -96
98 -211z m581 165 c13 -20 30 -57 36 -83 11 -41 10 -52 -6 -87 -24 -54 -38
-65 -64 -52 -17 9 -18 15 -10 46 12 44 4 75 -21 75 -34 0 -49 11 -60 46 -13
38 1 68 41 90 32 17 57 6 84 -35z m-6893 -20 c85 -36 89 -64 30 -215 -22 -54
-28 -84 -22 -95 11 -21 54 -45 70 -39 7 2 33 56 59 120 25 64 50 120 54 124 5
6 69 -22 95 -41 2 -2 -78 -224 -149 -413 l-9 -22 -52 26 c-29 15 -54 27 -56
29 -1 1 5 18 13 38 19 47 20 47 -11 47 -37 0 -109 74 -123 125 -12 46 -4 91
27 152 27 52 28 75 3 90 -19 12 -19 14 -4 53 9 22 19 40 24 40 4 0 27 -8 51
-19z m6146 -234 c45 -111 82 -207 82 -213 0 -9 -81 -54 -99 -54 -5 0 -14 20
-21 45 l-12 45 -45 -40 c-52 -45 -98 -58 -154 -41 -141 42 -186 237 -77 338
24 22 69 43 93 43 7 0 19 -16 25 -36 12 -35 11 -38 -17 -60 -17 -13 -36 -37
-43 -53 -17 -43 12 -105 54 -109 34 -4 78 13 102 39 16 18 14 24 -30 126 -25
60 -46 111 -46 115 0 7 87 56 100 58 3 0 42 -91 88 -203z m-546 137 c41 -13
88 -49 77 -57 -71 -56 -79 -59 -108 -47 -40 16 -121 15 -163 -3 -35 -15 -68
-65 -68 -104 0 -10 34 -126 76 -257 41 -131 74 -240 72 -241 -7 -7 -101 -45
-104 -42 -2 1 -37 110 -79 240 -84 265 -92 324 -55 397 53 103 223 158 352
114z m-4671 -87 c50 -33 81 -97 86 -176 5 -59 -2 -89 -62 -296 -37 -126 -69
-231 -70 -233 -6 -7 -97 22 -101 33 -3 7 22 108 56 225 74 259 83 300 69 339
-11 30 -40 48 -59 36 -5 -3 -14 -24 -20 -46 -10 -34 -14 -39 -32 -33 -38 12
-88 34 -88 39 0 19 47 99 68 115 35 28 109 27 153 -3z m-503 -32 c23 -9 42
-21 42 -25 0 -8 -151 -413 -156 -419 -7 -8 -104 42 -104 53 -1 25 156 416 165
412 5 -2 29 -12 53 -21z m5252 -71 c40 -34 60 -74 60 -121 -1 -53 -33 -121
-65 -133 -27 -10 -30 -21 -15 -51 13 -24 26 -24 85 2 25 11 48 19 49 17 9 -14
26 -62 26 -73 0 -18 -146 -87 -175 -83 -11 2 -41 31 -66 65 -45 59 -48 61 -69
46 -12 -8 -25 -11 -30 -7 -9 11 -33 84 -28 89 1 1 40 21 86 44 79 40 82 43 82
75 0 50 -24 53 -110 17 l-71 -31 -15 35 c-8 19 -14 39 -14 45 0 18 161 89 202
90 25 0 46 -8 68 -26z m-5044 -14 c32 -11 77 -35 98 -53 35 -30 40 -39 44 -89
3 -38 -1 -64 -12 -86 -25 -48 -48 -55 -141 -48 -98 8 -115 3 -115 -34 0 -57
98 -88 175 -56 39 17 40 15 51 -62 l6 -49 -46 -12 c-65 -16 -136 -4 -198 33
-72 44 -91 73 -96 149 -4 75 19 120 75 143 30 13 46 13 105 3 61 -11 71 -11
86 4 15 16 15 18 -5 39 -16 15 -38 23 -78 26 l-56 5 7 31 c10 46 22 76 32 76
4 0 35 -9 68 -20z m4553 -197 c95 -321 109 -375 98 -378 -7 -2 -29 -9 -50 -15
-22 -7 -42 -8 -47 -4 -12 13 -130 427 -124 433 6 7 73 28 91 30 7 1 21 -29 32
-66z m-814 17 c46 -37 81 -83 94 -124 11 -34 91 -449 91 -471 0 -12 -98 -51
-105 -42 -4 4 -94 439 -101 486 -7 52 -52 105 -78 95 -27 -10 -36 -38 -26 -75
5 -18 9 -34 7 -35 -1 -1 -26 -9 -54 -17 l-53 -16 -7 27 c-31 115 31 202 143
202 42 0 58 -5 89 -30z m-3110 -51 l62 -31 -9 -39 c-12 -45 -19 -47 -70 -19
-21 11 -55 22 -77 26 -33 5 -41 3 -51 -16 -16 -30 -1 -45 76 -70 35 -12 66
-26 69 -30 7 -12 -21 -80 -34 -80 -5 0 -31 9 -57 20 -42 18 -49 19 -69 6 -31
-20 -39 -60 -19 -91 28 -43 93 -50 152 -15 l33 20 10 -27 c5 -15 11 -42 12
-61 2 -32 0 -35 -43 -48 -25 -8 -61 -14 -81 -14 -49 0 -137 47 -173 93 -27 34
-31 46 -30 98 1 55 4 63 37 97 24 24 34 41 28 47 -6 6 -13 29 -17 52 -6 39 -4
45 29 78 33 33 39 35 97 35 50 0 76 -6 125 -31z m3667 -23 c9 -11 24 -55 33
-96 24 -111 29 -120 69 -120 18 0 39 7 46 15 19 23 27 18 43 -29 17 -49 16
-51 -40 -80 -40 -20 -105 -21 -142 -1 -32 16 -45 43 -70 142 -17 66 -18 68
-52 73 -28 4 -35 10 -40 35 -13 58 -11 61 39 77 55 18 91 14 114 -16z m-1262
-96 l85 -100 21 -238 c12 -130 21 -237 21 -238 -1 -1 -27 -4 -58 -8 l-57 -6
-5 33 c-3 17 -11 121 -18 229 -7 109 -15 201 -18 205 -3 5 -52 50 -109 102
-57 52 -99 98 -95 102 8 8 52 15 113 17 33 2 41 -4 120 -98z m-2162 55 c29 -9
52 -20 52 -26 0 -15 -100 -432 -105 -437 -7 -8 -105 22 -105 32 0 25 94 446
100 446 3 0 30 -7 58 -15z m1662 -29 l0 -45 -42 -3 -43 -3 0 -90 c-1 -49 -2
-183 -3 -297 l-2 -208 -62 0 -63 0 3 90 3 90 -50 0 c-47 0 -51 -2 -51 -24 0
-46 -18 -74 -53 -85 -76 -25 -131 24 -131 115 0 56 13 80 52 95 20 8 23 14 20
56 l-3 48 -38 -3 -38 -4 3 49 3 48 59 3 c69 4 112 -11 120 -41 3 -12 6 -52 6
-89 l0 -68 55 0 55 0 0 95 c0 52 4 95 9 95 6 0 6 12 0 32 -31 110 29 188 144
188 l47 0 0 -44z m-1355 -60 c30 -20 65 -88 65 -126 0 -14 -9 -44 -20 -68 -15
-33 -29 -47 -62 -62 -24 -11 -53 -20 -65 -20 -19 0 -23 -5 -23 -35 0 -39 13
-49 78 -60 l44 -7 -7 -37 c-4 -20 -10 -40 -15 -44 -9 -10 -149 16 -180 33 -19
10 -27 44 -32 135 -3 37 -5 40 -35 43 -18 2 -33 5 -33 7 0 28 25 105 33 105 7
0 50 -7 95 -17 92 -18 102 -14 102 37 0 31 -22 45 -80 54 -83 13 -82 13 -75
59 4 23 9 45 11 48 6 11 172 -27 199 -45z m2517 -223 c26 -161 34 -230 26
-234 -15 -10 -99 -22 -105 -15 -3 2 -22 106 -42 231 l-38 225 26 6 c14 3 31 7
36 9 6 2 21 4 36 4 l25 1 36 -227z m-257 142 c51 -38 75 -94 75 -178 0 -117
-52 -185 -149 -195 -58 -5 -103 14 -152 64 l-33 34 37 37 37 37 38 -37 c42
-41 61 -46 84 -19 25 28 30 60 18 112 -16 66 -47 87 -104 72 -23 -6 -41 -10
-42 -9 -1 1 -4 23 -7 49 -6 47 -6 48 26 57 57 18 131 8 172 -24z m-1597 -6
c62 -15 65 -20 57 -68 -6 -34 -10 -39 -23 -32 -10 5 -35 12 -58 15 -49 8 -92
-18 -80 -49 6 -16 18 -17 136 -13 l130 5 0 -50 0 -50 -66 6 -66 6 31 -34 c61
-70 46 -160 -33 -196 -87 -39 -195 -16 -284 60 l-33 29 45 37 45 37 29 -33
c23 -25 38 -32 78 -36 82 -8 110 39 57 97 l-28 30 -108 -12 c-59 -6 -110 -8
-113 -5 -4 3 -9 26 -11 52 l-6 45 63 0 63 0 -20 23 c-11 12 -23 31 -27 42 -7
25 27 83 57 95 31 12 110 12 165 -1z m1095 -76 c4 -38 9 -143 13 -235 6 -145
5 -168 -8 -168 -8 0 -36 -3 -62 -6 l-46 -7 0 37 0 37 -32 -18 c-21 -11 -56
-17 -93 -18 -113 0 -199 77 -200 180 l0 50 67 10 c75 11 91 22 86 56 -3 22 -8
24 -70 27 l-68 3 0 49 0 50 68 2 c124 3 136 -2 174 -76 24 -46 20 -92 -12
-136 -22 -31 -76 -60 -111 -60 -36 0 -20 -29 24 -41 32 -9 53 -9 86 0 71 19
73 25 66 189 l-6 142 59 0 59 0 6 -67z"/>
<path d="M3286 4074 c-3 -9 -6 -29 -6 -45 0 -26 3 -29 35 -29 43 0 61 26 43
64 -13 30 -62 37 -72 10z"/>
<path d="M10870 4972 c0 -18 223 -297 325 -406 114 -122 418 -507 470 -594 6
-10 19 -31 31 -47 11 -17 31 -51 43 -78 14 -29 27 -45 34 -40 27 15 157 118
157 123 0 3 -65 67 -145 140 -132 122 -326 320 -496 505 -113 122 -283 298
-340 353 -52 48 -79 63 -79 44z"/>
<path d="M9168 3526 c-29 -24 -64 -57 -77 -72 -14 -16 -48 -56 -76 -89 -138
-159 -285 -390 -285 -448 0 -32 32 -33 54 -2 40 56 75 83 119 90 72 12 86 24
160 134 51 76 187 353 194 396 5 30 3 35 -15 35 -11 0 -44 -20 -74 -44z"/>
<path d="M8365 2956 c-22 -22 -85 -141 -85 -161 0 -3 13 -5 30 -5 58 0 135
139 97 177 -14 14 -18 13 -42 -11z"/>
<path d="M9425 2864 l-40 -36 49 5 c32 3 54 11 63 23 39 53 -15 60 -72 8z"/>
</g>
</svg>
