<svg width="28" height="28" viewBox="0 0 28 28" fill="none" xmlns="http://www.w3.org/2000/svg">
<circle cx="14" cy="14" r="13" fill="white" stroke="#777D94" stroke-width="2"/>
<g opacity="0.6">
<path d="M13.75 3.5C10.8505 3.5 8.5 5.85051 8.5 8.75C8.5 11.6495 10.8505 14 13.75 14C16.6495 14 19 11.6495 19 8.75C19 5.85051 16.6495 3.5 13.75 3.5ZM11 8.75C11 7.23121 12.2312 6 13.75 6C15.2688 6 16.5 7.23121 16.5 8.75C16.5 10.2688 15.2688 11.5 13.75 11.5C12.2312 11.5 11 10.2688 11 8.75Z" fill="#1C274C" stroke="#777D94"/>
<path d="M8.18009 15.8363L8.18008 15.8363C6.72906 16.6654 5.5 18.0022 5.5 19.75C5.5 21.4978 6.72906 22.8346 8.18008 23.6637L8.42378 23.2373L8.18009 23.6637C9.66788 24.5139 11.6398 25 13.75 25C15.8602 25 17.8321 24.5139 19.32 23.6637L19.32 23.6637C20.7709 22.8346 22 21.4978 22 19.75C22 18.0022 20.7709 16.6654 19.32 15.8363L19.32 15.8363C17.8321 14.9862 15.8602 14.5 13.75 14.5C11.6398 14.5 9.66788 14.9862 8.18009 15.8363ZM9.42043 18.0069L9.42044 18.0069C10.4662 17.4093 11.9943 17 13.75 17C15.5057 17 17.0338 17.4093 18.0795 18.0069L18.0795 18.0069C19.1585 18.6234 19.5 19.2859 19.5 19.75C19.5 20.2141 19.1585 20.8766 18.0795 21.4931L18.0795 21.4931C17.0338 22.0907 15.5057 22.5 13.75 22.5C11.9943 22.5 10.4662 22.0907 9.42044 21.4931L9.42043 21.4931C8.34152 20.8766 8 20.2141 8 19.75C8 19.2859 8.34152 18.6234 9.42043 18.0069Z" fill="#1C274C" stroke="#777D94"/>
</g>
</svg>
