<svg width="32" height="33" viewBox="0 0 32 33" fill="none" xmlns="http://www.w3.org/2000/svg">
<path d="M27.5836 19.2011L25.3183 17.4297C25.3885 16.8114 25.3885 16.1872 25.3183 15.569L27.5856 13.7966C28.0105 13.4544 28.1241 12.8543 27.8537 12.3805L25.497 8.30686C25.2255 7.83003 24.6474 7.6218 24.1343 7.81603L21.4644 8.89017C20.9627 8.52617 20.4252 8.21411 19.8604 7.9588L19.4506 5.12252C19.3768 4.57802 18.9096 4.17329 18.3601 4.17777H13.6364C13.0915 4.1745 12.6281 4.57469 12.552 5.11429L12.1413 7.95875C11.5782 8.21651 11.0416 8.52881 10.5394 8.89118L7.86223 7.81497C7.3544 7.61477 6.77682 7.8205 6.50982 8.29656L4.15104 12.3774C3.87335 12.852 3.98767 13.4587 4.41906 13.7997L6.68436 15.5711C6.61345 16.1893 6.61345 16.8136 6.68436 17.4318L4.41699 19.2031C3.99138 19.5449 3.8773 20.1452 4.14796 20.6192L6.50366 24.6939C6.77475 25.1711 7.35319 25.3795 7.86632 25.1848L10.5362 24.1106C11.0384 24.4748 11.5761 24.7872 12.1413 25.0431L12.552 27.8773C12.6243 28.4203 13.0886 28.8252 13.6364 28.823H18.36C18.906 28.8274 19.3709 28.4271 19.4475 27.8865L19.8583 25.042C20.4213 24.7842 20.9579 24.4719 21.4602 24.1096L24.1404 25.1868C24.6482 25.3866 25.2255 25.181 25.4928 24.7052L27.8587 20.608C28.1236 20.1348 28.0072 19.5396 27.5836 19.2011ZM15.9982 21.6348C13.1626 21.6348 10.8638 19.336 10.8638 16.5003C10.8638 13.6647 13.1625 11.3659 15.9982 11.3659C18.8339 11.3659 21.1327 13.6647 21.1327 16.5003C21.1293 19.3347 18.8325 21.6314 15.9982 21.6348Z" fill="currentColor"/>
</svg>
